<?xml version="1.0" standalone="yes"?>
<svg xmlns="http://www.w3.org/2000/svg" width="512" height="512">
<path style="fill:#030502; stroke:none;" d="M0 0L0 512L36 512L36 511C24.107 502.143 29.2537 482.216 32.7099 470C41.8019 437.864 67.8842 404.696 64.8256 370C63.5851 355.928 55.8423 343.661 50.4275 331C44.1688 316.365 39.5225 300.551 36.2106 285C24.5131 230.072 15.4053 162.383 33.5154 108C42.5007 81.0182 58.3929 51.0145 79.0895 31.1736C106.62 4.78171 149.385 -4.45703 186 5.15588C204.75 10.0786 220.979 26.635 226.652 45C229.173 53.1598 230.269 64.3456 222.892 70.4421C213.206 78.4465 194.555 76.2694 183 75.1698C163.503 73.3143 135.242 71.9598 118.039 82.6266C105.578 90.3536 97.861 104.616 92.9529 118C83.8288 142.882 78.6627 169.493 81.8449 196C83.7539 211.902 90.1448 230.522 105 238.687C125.758 250.095 155.517 243.024 178 242.039C226.839 239.901 289.294 238.316 329 272.3C373.286 310.205 393.794 368.941 420.691 419C430.649 437.534 440.714 458.358 455.093 474C462.102 481.624 469.963 488.926 480 492.25C486.254 494.321 494.328 493.168 499.941 496.857C507.666 501.934 501.889 509.609 495 511L495 512L512 512L512 0L0 0z"/>
<path style="fill:#76b254; stroke:none;" d="M41 87L42 89C33.2223 95.4362 30.369 117.788 28.2106 128C19.617 168.66 25.1502 214.329 30.8696 255C32.5265 266.782 34.6754 278.412 37.3488 290C38.3119 294.175 38.627 300.166 42 303C41.0764 307.9 43.9274 313.324 45.4846 318C50.0621 331.746 57.7059 344.224 61.9745 358C73.0557 393.761 77.6445 429.265 69.5756 466C67.3743 476.022 58.2098 503.882 70.108 510.543C74.358 512.923 80.3185 512 85 512L118 512C123.139 512 129.876 513.013 133.012 507.891C139.408 497.443 135.243 475.591 134.008 464.09C133.25 457.02 134.31 438.639 129 434L129 430C184.69 446.117 245.063 456.26 299 428C299 446.45 297.278 463.806 294.247 482C293.044 489.218 290.213 502.034 294.318 508.721C297.084 513.228 304.538 512 309 512L347 512C351.815 512 357.967 513.039 360.566 507.941C364.91 499.423 363.361 486.112 362.285 477C360.399 461.02 359.032 444.997 357 429C366.535 436.526 373.811 447.141 382.09 456.001C404.211 479.675 427.741 500.508 460 508.525C469.263 510.827 497 517.633 502.971 506.891C505.28 502.739 503.113 497.761 498.956 496.018C493.233 493.617 486.823 494.37 481 492.3C467.869 487.632 457.069 477.362 449.359 466C423.553 427.97 405.454 386.082 383.312 346C368.515 319.212 353.436 291.1 329 271.666C287.84 238.93 227.676 239.864 178 242.039C156.031 243.001 123.951 250.857 104.17 238.123C77.1508 220.732 78.8086 179.526 83.4352 152C84.8576 143.537 89.4779 134.566 89 126C93.5633 122.181 95.297 112.445 97.9475 107C104.038 94.4875 114.486 82.7695 128 78.3596C150.226 71.1067 175.201 76.2674 198 75.9962C206.593 75.8939 220.499 75.8053 225.772 67.8256C232.804 57.1851 226.664 40.5403 220.396 31.0038C203.341 5.05762 173.265 -0.617065 144 2.16977C110.927 5.31924 83.0678 21.8962 64.0363 49C55.9479 60.5191 50.3615 76.9841 41 87z"/>
<path style="fill:#91ba46; stroke:none;" d="M165 2L166 3L165 2z"/>
<path style="fill:#818581; stroke:none;" d="M176 3L177 4L176 3z"/>
<path style="fill:#91ba46; stroke:none;" d="M190 6L191 7L190 6M115 8L116 9L115 8M108 11L109 12L108 11M202 12L203 13L202 12M104 13L105 14L104 13M102 14L103 15L102 14z"/>
<path style="fill:#818581; stroke:none;" d="M208 17L209 18L208 17z"/>
<path style="fill:#91ba46; stroke:none;" d="M92 20L93 21L92 20z"/>
<path style="fill:#818581; stroke:none;" d="M168 27C179.325 20.2851 186.715 27.6752 180 39C191.616 29.7917 177.208 15.3835 168 27z"/>
<path style="fill:#030502; stroke:none;" d="M173.019 23.7462C163.492 27.4116 169.384 42.0905 178.956 38.3958C188.343 34.7726 182.561 20.0753 173.019 23.7462z"/>
<path style="fill:#9dff9d; stroke:none;" d="M214 23L215 24L214 23M215 24L216 25L215 24z"/>
<path style="fill:#91ba46; stroke:none;" d="M218 28L219 29L218 28z"/>
<path style="fill:#818581; stroke:none;" d="M167 29L167 33L168 33L167 29z"/>
<path style="fill:#9dff9d; stroke:none;" d="M219 29L220 30L219 29z"/>
<path style="fill:#91ba46; stroke:none;" d="M220 31L221 32L220 31z"/>
<path style="fill:#818581; stroke:none;" d="M168 35L169 36L168 35M169 36L170 37L169 36M223 36L224 37L223 36M170 37L171 38L170 37z"/>
<path style="fill:#91ba46; stroke:none;" d="M72 38L73 39L72 38z"/>
<path style="fill:#818581; stroke:none;" d="M171 38L172 39L171 38M224 38L225 39L224 38M71 39L72 40L71 39M174 39L174 40L178 40L174 39z"/>
<path style="fill:#91ba46; stroke:none;" d="M225 41L226 42L225 41z"/>
<path style="fill:#9dff9d; stroke:none;" d="M68 43L69 44L68 43z"/>
<path style="fill:#818581; stroke:none;" d="M227 47L228 48L227 47z"/>
<path style="fill:#91ba46; stroke:none;" d="M62 51L63 52L62 51M60 54L61 55L60 54M58 57L59 58L58 57M53 65L54 66L53 65z"/>
<path style="fill:#9dff9d; stroke:none;" d="M51 68L52 69L51 68z"/>
<path style="fill:#818581; stroke:none;" d="M225 68L226 69L225 68z"/>
<path style="fill:#9dff9d; stroke:none;" d="M223 70L224 71L223 70M213 74L214 75L213 74z"/>
<path style="fill:#91ba46; stroke:none;" d="M186 75L187 76L186 75z"/>
<path style="fill:#818581; stroke:none;" d="M204 75L205 76L204 75z"/>
<path style="fill:#9dff9d; stroke:none;" d="M130 77L131 78L130 77z"/>
<path style="fill:#818581; stroke:none;" d="M124 79L125 80L124 79z"/>
<path style="fill:#91ba46; stroke:none;" d="M44 82L45 83L44 82z"/>
<path style="fill:#9dff9d; stroke:none;" d="M118 82L119 83L118 82z"/>
<path style="fill:#91ba46; stroke:none;" d="M41 88L42 89L41 88z"/>
<path style="fill:#818581; stroke:none;" d="M106 93L107 94L106 93z"/>
<path style="fill:#91ba46; stroke:none;" d="M105 94L106 95L105 94M102 98L103 99L102 98M36 99L37 100L36 99z"/>
<path style="fill:#818581; stroke:none;" d="M101 100L102 101L101 100z"/>
<path style="fill:#91ba46; stroke:none;" d="M99 103L100 104L99 103M34 105L35 106L34 105z"/>
<path style="fill:#9dff9d; stroke:none;" d="M98 105L99 106L98 105z"/>
<path style="fill:#91ba46; stroke:none;" d="M33 108L34 109L33 108M96 109L97 110L96 109M30 118L31 119L30 118z"/>
<path style="fill:#9dff9d; stroke:none;" d="M92 119L93 120L92 119z"/>
<path style="fill:#91ba46; stroke:none;" d="M91 121L92 122L91 121M29 122L30 123L29 122M89 126L90 127L89 126z"/>
<path style="fill:#818581; stroke:none;" d="M89 128L90 129L89 128z"/>
<path style="fill:#91ba46; stroke:none;" d="M88 131L89 132L88 131M87 132L88 133L87 132z"/>
<path style="fill:#818581; stroke:none;" d="M26 139L27 140L26 139z"/>
<path style="fill:#9dff9d; stroke:none;" d="M86 139L87 140L86 139z"/>
<path style="fill:#818581; stroke:none;" d="M25 149L26 150L25 149z"/>
<path style="fill:#9dff9d; stroke:none;" d="M82 158L83 159L82 158z"/>
<path style="fill:#818581; stroke:none;" d="M82 201L83 202L82 201z"/>
<path style="fill:#91ba46; stroke:none;" d="M25 202L26 203L25 202z"/>
<path style="fill:#9dff9d; stroke:none;" d="M83 205L84 206L83 205M86 214L87 215L86 214z"/>
<path style="fill:#91ba46; stroke:none;" d="M86 215L87 216L86 215M88 220L89 221L88 220z"/>
<path style="fill:#9dff9d; stroke:none;" d="M89 221L90 222L89 221z"/>
<path style="fill:#818581; stroke:none;" d="M90 223L91 224L90 223z"/>
<path style="fill:#9dff9d; stroke:none;" d="M94 229L95 230L94 229M28 237L29 238L28 237z"/>
<path style="fill:#91ba46; stroke:none;" d="M102 237L103 238L102 237M104 238L105 239L104 238z"/>
<path style="fill:#9dff9d; stroke:none;" d="M106 239L107 240L106 239z"/>
<path style="fill:#818581; stroke:none;" d="M108 240L109 241L108 240z"/>
<path style="fill:#91ba46; stroke:none;" d="M110 241L111 242L110 241M193 241L194 242L193 241z"/>
<path style="fill:#818581; stroke:none;" d="M114 242L115 243L114 242z"/>
<path style="fill:#9dff9d; stroke:none;" d="M173 242L174 243L173 242z"/>
<path style="fill:#91ba46; stroke:none;" d="M240 242L241 243L240 242z"/>
<path style="fill:#9dff9d; stroke:none;" d="M158 243L159 244L158 243z"/>
<path style="fill:#91ba46; stroke:none;" d="M161 243L162 244L161 243M250 243L251 244L250 243M132 244L133 245L132 244M136 244L137 245L136 244z"/>
<path style="fill:#9dff9d; stroke:none;" d="M269 246L270 247L269 246M273 247L274 248L273 247z"/>
<path style="fill:#91ba46; stroke:none;" d="M276.667 248.333L277.333 248.667L276.667 248.333z"/>
<path style="fill:#818581; stroke:none;" d="M288 251L289 252L288 251M30 252L31 253L30 252M212 255C207.787 252.169 199.384 252.297 202.747 259.772C205.94 266.868 211.526 259.197 212 255M291 252L292 253L291 252z"/>
<path style="fill:#91ba46; stroke:none;" d="M293 253L294 254L293 253z"/>
<path style="fill:#818581; stroke:none;" d="M238.094 254.858C227.045 259.751 234.656 277.576 245.985 272.987C258.309 267.995 250.024 249.575 238.094 254.858z"/>
<path style="fill:#91ba46; stroke:none;" d="M296 254L297 255L296 254z"/>
<path style="fill:#9dff9d; stroke:none;" d="M297 254L298 255L297 254M298.667 255.333L299.333 255.667L298.667 255.333z"/>
<path style="fill:#818581; stroke:none;" d="M170.054 256.931C163.591 258.689 166.453 269.127 172.892 267.149C179.007 265.271 176.346 255.22 170.054 256.931M130 262C130.585 269.005 140.076 278.777 144.239 267.895C148.396 257.03 135.175 258.34 130 262M313 261L314 262L313 261M32 265L33 266L32 265M289.04 266.851C281.375 269.108 285.45 280.328 292.891 277.392C299.564 274.759 295.467 264.959 289.04 266.851M262.174 267.728C250.21 272.459 258.984 288.667 269.956 284.257C280.591 279.982 272.874 263.497 262.174 267.728z"/>
<path style="fill:#91ba46; stroke:none;" d="M324 268L325 269L324 268z"/>
<path style="fill:#9dff9d; stroke:none;" d="M33 271L34 272L33 271z"/>
<path style="fill:#91ba46; stroke:none;" d="M328 271L329 272L328 271z"/>
<path style="fill:#818581; stroke:none;" d="M188.039 273.573C174.516 275.328 177.554 296.96 191.271 294.652C204.096 292.494 201.181 271.867 188.039 273.573M227.282 286.032C221.425 289.685 227.219 299.785 233.177 295.831C239.128 291.881 233.669 282.047 227.282 286.032M311.279 285.747C304.953 288.65 309.664 299.122 316.216 296.117C322.999 293.005 318.037 282.645 311.279 285.747z"/>
<path style="fill:#9dff9d; stroke:none;" d="M343 285L344 286L343 285z"/>
<path style="fill:#818581; stroke:none;" d="M36 286L37 287L36 286z"/>
<path style="fill:#9dff9d; stroke:none;" d="M344 286L345 287L344 286z"/>
<path style="fill:#91ba46; stroke:none;" d="M346 289L347 290L346 289M37 290L38 291L37 290M348 291L349 292L348 291z"/>
<path style="fill:#9dff9d; stroke:none;" d="M349 292L350 293L349 292M352 296L353 297L352 296z"/>
<path style="fill:#91ba46; stroke:none;" d="M39 298L40 299L39 298M41 303L42 304L41 303M357 303L358 304L357 303M42 307L43 308L42 307z"/>
<path style="fill:#9dff9d; stroke:none;" d="M362 310L363 311L362 310z"/>
<path style="fill:#91ba46; stroke:none;" d="M45 317L46 318L45 317M367 318L368 319L367 318z"/>
<path style="fill:#818581; stroke:none;" d="M369 321L370 322L369 321z"/>
<path style="fill:#9dff9d; stroke:none;" d="M48 326L49 327L48 326z"/>
<path style="fill:#91ba46; stroke:none;" d="M373 328L374 329L373 328z"/>
<path style="fill:#9dff9d; stroke:none;" d="M50 331L51 332L50 331z"/>
<path style="fill:#818581; stroke:none;" d="M58 348L59 349L58 348M384 348L385 349L384 348z"/>
<path style="fill:#9dff9d; stroke:none;" d="M385 349L386 350L385 349z"/>
<path style="fill:#91ba46; stroke:none;" d="M59 350L60 351L59 350M386 351L387 352L386 351z"/>
<path style="fill:#818581; stroke:none;" d="M61 356L62 357L61 356M389 356L390 357L389 356z"/>
<path style="fill:#9dff9d; stroke:none;" d="M390 358L391 359L390 358z"/>
<path style="fill:#91ba46; stroke:none;" d="M62 359L63 360L62 359M392 362L393 363L392 362M393 364L394 365L393 364z"/>
<path style="fill:#9dff9d; stroke:none;" d="M64 367L65 368L64 367z"/>
<path style="fill:#818581; stroke:none;" d="M65 371C62.1305 407.359 41.2562 436.441 32.1543 471C29.5865 480.75 24.3009 501.753 33.2245 509.566C40.6074 516.031 62.5567 512 72 512L72 511C59.0585 503.903 66.27 481.359 68.8812 470C74.7619 444.418 75.3207 421.892 71.0802 396C69.7936 388.144 69.8725 377.547 65 371z"/>
<path style="fill:#91ba46; stroke:none;" d="M399 376L400 377L399 376z"/>
<path style="fill:#818581; stroke:none;" d="M401 380L402 381L401 380z"/>
<path style="fill:#9dff9d; stroke:none;" d="M421 420L422 421L421 420z"/>
<path style="fill:#818581; stroke:none;" d="M422 422L423 423L422 422z"/>
<path style="fill:#9dff9d; stroke:none;" d="M423 424L424 425L423 424z"/>
<path style="fill:#818581; stroke:none;" d="M298 512L298 511C291.138 507.306 292.487 496.79 293.169 489.999C295.282 468.966 299 449.291 299 428C290.902 430.943 278.178 434.029 271.228 438.934C267.368 441.658 265.793 448.854 263.756 453C257.758 465.21 250.993 478.539 248.615 492C247.743 496.932 246.771 504.565 250.514 508.581C254.12 512.451 260.195 511.998 265 512L298 512M357 429L358 430L357 429z"/>
<path style="fill:#91ba46; stroke:none;" d="M129 430L130 431L129 430z"/>
<path style="fill:#030502; stroke:none;" d="M130 430C131.579 450.006 137.415 470.894 135.282 491C134.509 498.279 135.741 505.524 130 511L130 512L256 512L256 511C246.736 507.815 247.178 498.158 249.13 490C253.258 472.755 264.091 457.93 269 441C253.636 441.66 238.466 445.606 223 445.985C190.779 446.775 160.443 439.906 130 430M357 430C361.311 453.142 370.005 490.501 358 512L479 512L479 511C449.471 510.756 417.827 493.155 398.09 472C390.611 463.985 382.588 456.291 375.425 448C369.968 441.683 364.718 433.599 357 430z"/>
<path style="fill:#91ba46; stroke:none;" d="M359 430L360 431L359 430M134 431L135 432L134 431z"/>
<path style="fill:#9dff9d; stroke:none;" d="M427 431L428 432L427 431M357 432L358 433L357 432z"/>
<path style="fill:#818581; stroke:none;" d="M361 432L362 433L361 432z"/>
<path style="fill:#91ba46; stroke:none;" d="M129 433L130 434L129 433M362 433L363 434L362 433M428 433L429 434L428 433z"/>
<path style="fill:#818581; stroke:none;" d="M430 436L431 437L430 436z"/>
<path style="fill:#91ba46; stroke:none;" d="M153.667 437.333L154.333 437.667L153.667 437.333M157 438L158 439L157 438M431 438L432 439L431 438z"/>
<path style="fill:#9dff9d; stroke:none;" d="M161 439L162 440L161 439M165 440L166 441L165 440z"/>
<path style="fill:#91ba46; stroke:none;" d="M166 440L167 441L166 440M432 440L433 441L432 440z"/>
<path style="fill:#9dff9d; stroke:none;" d="M131 441L132 442L131 441z"/>
<path style="fill:#91ba46; stroke:none;" d="M131 442L132 443L131 442z"/>
<path style="fill:#9dff9d; stroke:none;" d="M176 442L177 443L176 442z"/>
<path style="fill:#91ba46; stroke:none;" d="M182 443L183 444L182 443M250 443L251 444L250 443z"/>
<path style="fill:#818581; stroke:none;" d="M434 443L435 444L434 443M190 444L191 445L190 444z"/>
<path style="fill:#91ba46; stroke:none;" d="M242 444L243 445L242 444M372 444L373 445L372 444M203.667 445.333L204.333 445.667L203.667 445.333M227 445L228 446L227 445M437 448L438 449L437 448z"/>
<path style="fill:#818581; stroke:none;" d="M132 449L133 450L132 449z"/>
<path style="fill:#9dff9d; stroke:none;" d="M376 449L377 450L376 449z"/>
<path style="fill:#91ba46; stroke:none;" d="M377 450L378 451L377 450M132 451L133 452L132 451M378 451L379 452L378 451z"/>
<path style="fill:#818581; stroke:none;" d="M439 451L440 452L439 451z"/>
<path style="fill:#91ba46; stroke:none;" d="M133 461L134 462L133 461z"/>
<path style="fill:#818581; stroke:none;" d="M447 463L448 464L447 463z"/>
<path style="fill:#9dff9d; stroke:none;" d="M361 465L362 466L361 465z"/>
<path style="fill:#91ba46; stroke:none;" d="M361 466L362 467L361 466z"/>
<path style="fill:#9dff9d; stroke:none;" d="M449 466L450 467L449 466M395 469L396 470L395 469z"/>
<path style="fill:#818581; stroke:none;" d="M451 469L452 470L451 469z"/>
<path style="fill:#91ba46; stroke:none;" d="M398 472L399 473L398 472M400 474L401 475L400 474M456 475L457 476L456 475z"/>
<path style="fill:#9dff9d; stroke:none;" d="M457 476L458 477L457 476M458 477L459 478L458 477z"/>
<path style="fill:#91ba46; stroke:none;" d="M404 478L405 479L404 478z"/>
<path style="fill:#818581; stroke:none;" d="M459 478L460 479L459 478M405 479L406 480L405 479M460 479L461 480L460 479z"/>
<path style="fill:#9dff9d; stroke:none;" d="M461 480L462 481L461 480z"/>
<path style="fill:#91ba46; stroke:none;" d="M409 482L410 483L409 482M410 483L411 484L410 483M135.333 485.667L135.667 486.333L135.333 485.667z"/>
<path style="fill:#9dff9d; stroke:none;" d="M415 487L416 488L415 487M470 487L471 488L470 487z"/>
<path style="fill:#818581; stroke:none;" d="M135 488L136 489L135 488z"/>
<path style="fill:#91ba46; stroke:none;" d="M417 488L418 489L417 488z"/>
<path style="fill:#818581; stroke:none;" d="M421 491L422 492L421 491z"/>
<path style="fill:#76b254; stroke:none;" d="M248 492L249 493L248 492z"/>
<path style="fill:#9dff9d; stroke:none;" d="M484 493L485 494L484 493M428 495L429 496L428 495z"/>
<path style="fill:#91ba46; stroke:none;" d="M497 495L498 496L497 495z"/>
<path style="fill:#9dff9d; stroke:none;" d="M362 499L363 500L362 499z"/>
<path style="fill:#91ba46; stroke:none;" d="M503 499L504 500L503 499z"/>
<path style="fill:#9dff9d; stroke:none;" d="M456 507L457 508L456 507z"/>
<path style="fill:#818581; stroke:none;" d="M132 509L133 510L132 509M129 511L130 512L129 511z"/>
<path style="fill:#91ba46; stroke:none;" d="M479 511L480 512L479 511z"/>
</svg>
